<svg width="168" height="168" viewBox="0 0 168 168" fill="none" xmlns="http://www.w3.org/2000/svg">
<path d="M142.69 84L83.9998 25.3101L25.3099 84L83.9998 142.69L142.69 84Z" stroke="#2D2E36"/>
<path d="M139.123 84L83.9998 28.8766L28.8764 84L83.9998 139.123L139.123 84Z" stroke="#2D2E36"/>
<path d="M42.5 42.5L42.5 125.5H125.5V42.5H42.5Z" stroke="#2D2E36"/>
<path d="M25.1276 65.152C25.3142 66.048 25.4076 67.0373 25.4076 68.12L24.8476 67.98C24.8289 67.644 24.7822 67.4107 24.7076 67.28C24.6329 67.168 24.4556 67.0747 24.1756 67C23.0742 66.664 21.1142 66.496 18.2956 66.496C16.3356 66.496 14.5529 66.5707 12.9476 66.72C11.3609 66.8693 10.0729 67.084 9.08357 67.364C8.67291 66.58 8.46757 66.048 8.46757 65.768C8.46757 65.544 8.61691 65.4133 8.91557 65.376C9.99824 65.1893 10.8849 64.7227 11.5756 63.976C12.2662 63.2107 12.8169 62.1933 13.2276 60.924C13.6569 59.6547 14.0489 58.0307 14.4036 56.052C14.5716 55.156 14.7489 54.092 14.9356 52.86C15.1222 51.6093 15.2622 50.7133 15.3556 50.172C15.3182 50.4707 15.4116 49.836 15.6356 48.268C15.6729 47.9693 15.8596 47.7453 16.1956 47.596C16.6062 47.4093 17.4462 47.2507 18.7156 47.12C19.9849 46.9707 21.0582 46.896 21.9356 46.896C22.0289 46.9147 22.1036 47.0547 22.1596 47.316C22.2156 47.5773 22.2436 47.848 22.2436 48.128C22.2436 48.3147 22.2342 48.436 22.2156 48.492C21.8982 48.436 21.5436 48.3987 21.1516 48.38C20.7596 48.3427 20.4142 48.324 20.1156 48.324C19.5742 48.324 19.1729 48.4453 18.9116 48.688C18.6689 48.9307 18.4729 49.3507 18.3236 49.948L17.7356 52.608C17.1756 55.2213 16.7369 57.1253 16.4196 58.32C15.8782 60.3733 15.2809 61.9413 14.6276 63.024C13.9929 64.1067 13.2649 64.9 12.4436 65.404C13.6009 65.3293 14.7956 65.1987 16.0276 65.012C17.2596 64.8067 17.9969 64.6853 18.2396 64.648C19.5089 64.4427 20.4796 64.2933 21.1516 64.2C21.8422 64.1067 22.4769 64.06 23.0556 64.06C23.8022 64.06 24.3156 64.1533 24.5956 64.34C24.8756 64.508 25.0529 64.7787 25.1276 65.152ZM41.7497 60.588C42.0671 60.7373 42.2257 60.952 42.2257 61.232C42.2257 62.072 41.7311 62.9587 40.7417 63.892C39.7711 64.8067 38.5577 65.5813 37.1017 66.216C35.6644 66.832 34.3297 67.14 33.0977 67.14C32.0897 67.14 31.2311 66.9347 30.5217 66.524C29.8124 66.1133 29.2711 65.656 28.8977 65.152C28.5431 64.6293 28.3657 64.2467 28.3657 64.004C28.4964 63.5187 28.6177 62.94 28.7297 62.268C28.8604 61.596 28.9537 61.1293 29.0097 60.868C29.0657 60.532 29.1311 60.14 29.2057 59.692C29.2991 59.2253 29.4111 58.6933 29.5417 58.096C29.6164 57.7227 29.9431 57.312 30.5217 56.864C31.1004 56.3973 31.7537 56.0147 32.4817 55.716C33.2284 55.3987 33.8444 55.24 34.3297 55.24C34.7404 55.24 35.2257 55.352 35.7857 55.576C36.3644 55.8 36.8591 56.1173 37.2697 56.528C37.6804 56.92 37.8857 57.3867 37.8857 57.928C37.8857 58.6187 37.5404 59.2907 36.8497 59.944C36.1777 60.5973 35.3191 61.1387 34.2737 61.568C33.2284 61.9787 32.2017 62.2027 31.1937 62.24L30.9697 63.416C31.0257 63.9947 31.2964 64.4987 31.7817 64.928C32.2671 65.3387 32.9951 65.544 33.9657 65.544C34.8991 65.544 35.8697 65.3293 36.8777 64.9C37.9044 64.4707 38.8471 63.8827 39.7057 63.136C40.5831 62.3707 41.2644 61.5213 41.7497 60.588ZM34.0777 56.416C33.6111 56.416 33.1537 56.64 32.7057 57.088C32.2764 57.536 32.0057 57.984 31.8937 58.432L31.4177 60.98C32.5377 60.9053 33.4897 60.5787 34.2737 60C35.0577 59.4213 35.4497 58.74 35.4497 57.956C35.4497 57.4893 35.3097 57.116 35.0297 56.836C34.7684 56.556 34.4511 56.416 34.0777 56.416ZM43.0369 67.364C42.3462 67.364 41.7115 67.2427 41.1329 67C40.5542 66.7573 40.0969 66.4493 39.7609 66.076C39.4249 65.684 39.2569 65.2827 39.2569 64.872C39.2569 64.4987 39.3875 64.2093 39.6489 64.004C39.9102 63.78 40.2089 63.6493 40.5449 63.612C40.7689 64.3587 41.1049 64.9467 41.5529 65.376C42.0009 65.8053 42.5515 66.02 43.2049 66.02C43.8769 66.02 44.4275 65.8147 44.8569 65.404C45.2862 64.9747 45.5009 64.48 45.5009 63.92C45.5009 63.4533 45.3609 63.052 45.0809 62.716C44.8009 62.3613 44.3529 61.9413 43.7369 61.456C43.1022 60.952 42.6262 60.504 42.3089 60.112C41.9915 59.72 41.8329 59.2533 41.8329 58.712C41.8329 58.1147 42.0289 57.5547 42.4209 57.032C42.8315 56.5093 43.3449 56.0987 43.9609 55.8C44.5955 55.4827 45.2209 55.324 45.8369 55.324C46.5275 55.324 47.1902 55.492 47.8249 55.828C48.4595 56.1453 48.7769 56.5187 48.7769 56.948C48.7769 57.1533 48.7022 57.3587 48.5529 57.564C48.4035 57.7693 48.1795 57.9373 47.8809 58.068C47.6195 57.62 47.3395 57.284 47.0409 57.06C46.7609 56.836 46.4155 56.724 46.0049 56.724C45.5569 56.724 45.1649 56.8547 44.8289 57.116C44.4929 57.3587 44.3249 57.704 44.3249 58.152C44.3249 58.544 44.4649 58.908 44.7449 59.244C45.0249 59.5613 45.4542 59.9533 46.0329 60.42C46.7235 60.98 47.2369 61.4747 47.5729 61.904C47.9275 62.3147 48.1049 62.8093 48.1049 63.388C48.1049 64.0413 47.8622 64.676 47.3769 65.292C46.9102 65.908 46.2849 66.412 45.5009 66.804C44.7355 67.1773 43.9142 67.364 43.0369 67.364ZM79.2258 60.168C79.4498 60.168 79.6271 60.2333 79.7578 60.364C79.8884 60.476 79.9538 60.6533 79.9538 60.896C79.9538 61.456 79.6551 62.24 79.0578 63.248C78.4604 64.256 77.6764 65.1427 76.7058 65.908C75.7351 66.6733 74.6991 67.056 73.5978 67.056C72.6084 67.056 71.7498 66.7573 71.0218 66.16C70.3124 65.544 69.9578 64.7973 69.9578 63.92C69.9578 63.4347 70.0604 62.8093 70.2658 62.044C70.4898 61.2787 70.7698 60.392 71.1058 59.384C71.4044 58.4133 71.5724 57.8533 71.6098 57.704C71.6098 57.648 71.5724 57.6013 71.4978 57.564C71.4231 57.508 71.3484 57.48 71.2738 57.48C70.9191 57.48 70.3031 58.096 69.4258 59.328C68.5484 60.5413 67.8858 61.5773 67.4378 62.436C67.2511 63.0333 66.9151 64.3773 66.4298 66.468C66.3551 66.7853 66.2898 67 66.2338 67.112C66.1964 67.224 66.1311 67.28 66.0378 67.28C65.9258 67.28 65.6924 67.224 65.3378 67.112C65.0018 67.0187 64.6938 66.8973 64.4138 66.748C64.1524 66.5987 64.0218 66.4493 64.0218 66.3C64.0218 66.0573 64.1058 65.628 64.2738 65.012C64.7031 63.444 65.0391 62.184 65.2818 61.232C65.5244 60.2613 65.7858 59.0853 66.0658 57.704C65.9538 57.5547 65.8138 57.48 65.6458 57.48C65.3658 57.48 64.9551 57.7787 64.4138 58.376C63.8911 58.9547 63.3218 59.7293 62.7058 60.7C62.1084 61.652 61.5671 62.6507 61.0818 63.696C60.7458 64.9093 60.4658 66.0947 60.2418 67.252C59.9991 67.252 59.5511 67.1867 58.8978 67.056C58.2631 66.9253 57.9458 66.7853 57.9458 66.636C57.9458 66.5053 58.0391 66.0947 58.2258 65.404L58.3658 64.676C58.4404 64.3027 58.6831 63.1827 59.0938 61.316C59.5044 59.4307 59.9524 57.5733 60.4378 55.744C60.4751 55.576 60.5218 55.4547 60.5778 55.38C60.6338 55.3053 60.7178 55.268 60.8298 55.268C60.9791 55.268 61.3711 55.3333 62.0058 55.464C62.6404 55.576 62.9858 55.66 63.0418 55.716C62.6871 57.2467 62.2951 58.824 61.8658 60.448C62.4631 59.3467 63.0604 58.4413 63.6578 57.732C64.2738 57.0227 64.8244 56.5187 65.3098 56.22C65.8138 55.9027 66.2058 55.744 66.4858 55.744C66.7284 55.744 67.1484 55.8653 67.7458 56.108C68.3618 56.332 68.6698 56.5093 68.6698 56.64C68.5204 57.536 68.2871 58.6 67.9698 59.832C69.9298 56.9013 71.3484 55.436 72.2258 55.436C72.5618 55.436 73.0098 55.548 73.5698 55.772C74.1298 55.9773 74.4098 56.2107 74.4098 56.472C74.2044 57.1253 74.1111 57.4333 74.1298 57.396C73.6258 59.0013 73.2338 60.3173 72.9538 61.344C72.6924 62.3707 72.5618 63.2013 72.5618 63.836C72.5618 64.9933 73.1031 65.572 74.1858 65.572C75.2311 65.572 76.2204 65.0773 77.1538 64.088C78.0871 63.0987 78.7778 61.792 79.2258 60.168ZM93.9605 60.252C94.2965 60.252 94.4645 60.532 94.4645 61.092C94.4645 61.988 94.1005 62.9307 93.3725 63.92C92.6632 64.8907 91.7765 65.7027 90.7125 66.356C89.6485 67.0093 88.6685 67.336 87.7725 67.336C87.0632 67.336 86.4379 67.1307 85.8965 66.72C85.3739 66.3093 85.0005 65.7773 84.7765 65.124C84.2725 65.7587 83.6659 66.272 82.9565 66.664C82.2472 67.0373 81.6125 67.224 81.0525 67.224C80.5672 67.224 80.0819 67.084 79.5965 66.804C79.1112 66.5053 78.7005 66.132 78.3645 65.684C78.0285 65.236 77.8512 64.788 77.8325 64.34C78.2619 62.436 78.6445 60.588 78.9805 58.796C79.0552 58.4227 79.3725 57.956 79.9325 57.396C80.4925 56.8173 81.1645 56.3227 81.9485 55.912C82.7325 55.5013 83.4792 55.296 84.1885 55.296C84.8419 55.296 85.5045 55.492 86.1765 55.884C86.3072 55.5667 86.4099 55.3707 86.4845 55.296C86.5592 55.2027 86.6712 55.1467 86.8205 55.128L89.2565 54.988L89.3405 55.044C89.1165 55.2307 88.9485 55.436 88.8365 55.66C88.7245 55.884 88.6219 56.1453 88.5285 56.444C88.1925 57.5827 87.8472 58.964 87.4925 60.588C87.1379 62.1933 86.9605 63.304 86.9605 63.92C86.9605 64.4427 87.0819 64.9187 87.3245 65.348C87.5859 65.7773 87.9872 65.992 88.5285 65.992C89.0885 65.992 89.7325 65.7493 90.4605 65.264C91.2072 64.7787 91.8979 64.0973 92.5325 63.22C93.1859 62.3427 93.6619 61.3533 93.9605 60.252ZM81.9485 65.544C82.2099 65.544 82.5272 65.4133 82.9005 65.152C83.2739 64.8907 83.6192 64.536 83.9365 64.088C84.2725 63.64 84.5059 63.1453 84.6365 62.604L85.0845 60.504C85.4205 58.7867 85.6539 57.6573 85.7845 57.116C85.2992 56.892 84.7859 56.78 84.2445 56.78C83.3672 56.78 82.7045 57.06 82.2565 57.62C81.8272 58.1613 81.5379 58.7773 81.3885 59.468L80.5205 63.696C80.5579 64.1627 80.7259 64.592 81.0245 64.984C81.3232 65.3573 81.6312 65.544 81.9485 65.544ZM95.2634 67.364C94.5728 67.364 93.9381 67.2427 93.3594 67C92.7807 66.7573 92.3234 66.4493 91.9874 66.076C91.6514 65.684 91.4834 65.2827 91.4834 64.872C91.4834 64.4987 91.6141 64.2093 91.8754 64.004C92.1367 63.78 92.4354 63.6493 92.7714 63.612C92.9954 64.3587 93.3314 64.9467 93.7794 65.376C94.2274 65.8053 94.7781 66.02 95.4314 66.02C96.1034 66.02 96.6541 65.8147 97.0834 65.404C97.5128 64.9747 97.7274 64.48 97.7274 63.92C97.7274 63.4533 97.5874 63.052 97.3074 62.716C97.0274 62.3613 96.5794 61.9413 95.9634 61.456C95.3288 60.952 94.8527 60.504 94.5354 60.112C94.2181 59.72 94.0594 59.2533 94.0594 58.712C94.0594 58.1147 94.2554 57.5547 94.6474 57.032C95.0581 56.5093 95.5714 56.0987 96.1874 55.8C96.8221 55.4827 97.4474 55.324 98.0634 55.324C98.7541 55.324 99.4168 55.492 100.051 55.828C100.686 56.1453 101.003 56.5187 101.003 56.948C101.003 57.1533 100.929 57.3587 100.779 57.564C100.63 57.7693 100.406 57.9373 100.107 58.068C99.8461 57.62 99.5661 57.284 99.2674 57.06C98.9874 56.836 98.6421 56.724 98.2314 56.724C97.7834 56.724 97.3914 56.8547 97.0554 57.116C96.7194 57.3587 96.5514 57.704 96.5514 58.152C96.5514 58.544 96.6914 58.908 96.9714 59.244C97.2514 59.5613 97.6808 59.9533 98.2594 60.42C98.9501 60.98 99.4634 61.4747 99.7994 61.904C100.154 62.3147 100.331 62.8093 100.331 63.388C100.331 64.0413 100.089 64.676 99.6034 65.292C99.1368 65.908 98.5114 66.412 97.7274 66.804C96.9621 67.1773 96.1408 67.364 95.2634 67.364ZM106.174 67.364C105.483 67.364 104.848 67.2427 104.27 67C103.691 66.7573 103.234 66.4493 102.898 66.076C102.562 65.684 102.394 65.2827 102.394 64.872C102.394 64.4987 102.524 64.2093 102.786 64.004C103.047 63.78 103.346 63.6493 103.682 63.612C103.906 64.3587 104.242 64.9467 104.69 65.376C105.138 65.8053 105.688 66.02 106.342 66.02C107.014 66.02 107.564 65.8147 107.994 65.404C108.423 64.9747 108.638 64.48 108.638 63.92C108.638 63.4533 108.498 63.052 108.218 62.716C107.938 62.3613 107.49 61.9413 106.874 61.456C106.239 60.952 105.763 60.504 105.446 60.112C105.128 59.72 104.97 59.2533 104.97 58.712C104.97 58.1147 105.166 57.5547 105.558 57.032C105.968 56.5093 106.482 56.0987 107.098 55.8C107.732 55.4827 108.358 55.324 108.974 55.324C109.664 55.324 110.327 55.492 110.962 55.828C111.596 56.1453 111.914 56.5187 111.914 56.948C111.914 57.1533 111.839 57.3587 111.69 57.564C111.54 57.7693 111.316 57.9373 111.018 58.068C110.756 57.62 110.476 57.284 110.178 57.06C109.898 56.836 109.552 56.724 109.142 56.724C108.694 56.724 108.302 56.8547 107.966 57.116C107.63 57.3587 107.462 57.704 107.462 58.152C107.462 58.544 107.602 58.908 107.882 59.244C108.162 59.5613 108.591 59.9533 109.17 60.42C109.86 60.98 110.374 61.4747 110.71 61.904C111.064 62.3147 111.242 62.8093 111.242 63.388C111.242 64.0413 110.999 64.676 110.514 65.292C110.047 65.908 109.422 66.412 108.638 66.804C107.872 67.1773 107.051 67.364 106.174 67.364ZM130.328 60.252C130.664 60.252 130.832 60.532 130.832 61.092C130.832 61.988 130.468 62.9307 129.74 63.92C129.03 64.8907 128.144 65.7027 127.08 66.356C126.016 67.0093 125.036 67.336 124.14 67.336C123.43 67.336 122.805 67.1307 122.264 66.72C121.741 66.3093 121.368 65.7773 121.144 65.124C120.64 65.7587 120.033 66.272 119.324 66.664C118.614 67.0373 117.98 67.224 117.42 67.224C116.934 67.224 116.449 67.084 115.964 66.804C115.478 66.5053 115.068 66.132 114.732 65.684C114.396 65.236 114.218 64.788 114.2 64.34C114.629 62.436 115.012 60.588 115.348 58.796C115.422 58.4227 115.74 57.956 116.3 57.396C116.86 56.8173 117.532 56.3227 118.316 55.912C119.1 55.5013 119.846 55.296 120.556 55.296C121.209 55.296 121.872 55.492 122.544 55.884C122.674 55.5667 122.777 55.3707 122.852 55.296C122.926 55.2027 123.038 55.1467 123.188 55.128L125.624 54.988L125.708 55.044C125.484 55.2307 125.316 55.436 125.204 55.66C125.092 55.884 124.989 56.1453 124.896 56.444C124.56 57.5827 124.214 58.964 123.86 60.588C123.505 62.1933 123.328 63.304 123.328 63.92C123.328 64.4427 123.449 64.9187 123.692 65.348C123.953 65.7773 124.354 65.992 124.896 65.992C125.456 65.992 126.1 65.7493 126.828 65.264C127.574 64.7787 128.265 64.0973 128.9 63.22C129.553 62.3427 130.029 61.3533 130.328 60.252ZM118.316 65.544C118.577 65.544 118.894 65.4133 119.268 65.152C119.641 64.8907 119.986 64.536 120.304 64.088C120.64 63.64 120.873 63.1453 121.004 62.604L121.452 60.504C121.788 58.7867 122.021 57.6573 122.152 57.116C121.666 56.892 121.153 56.78 120.612 56.78C119.734 56.78 119.072 57.06 118.624 57.62C118.194 58.1613 117.905 58.7773 117.756 59.468L116.888 63.696C116.925 64.1627 117.093 64.592 117.392 64.984C117.69 65.3573 117.998 65.544 118.316 65.544ZM139.079 55.128C139.265 55.24 139.359 55.3613 139.359 55.492C139.359 55.6973 139.023 57.3307 138.351 60.392C137.679 63.4533 137.277 65.2827 137.147 65.88L136.755 67.672C135.504 73.3467 133.749 77.3787 131.491 79.768C129.251 82.176 126.6 83.38 123.539 83.38C121.523 83.38 120.085 82.9693 119.227 82.148C118.368 81.3267 117.939 80.3467 117.939 79.208C117.939 78.816 117.985 78.4053 118.079 77.976C118.172 77.5467 118.293 77.2107 118.443 76.968C118.965 78.1253 119.74 78.9747 120.767 79.516C121.775 80.076 122.951 80.356 124.295 80.356C126.703 80.356 128.635 79.6093 130.091 78.116C131.547 76.6413 132.573 75.0267 133.171 73.272C133.768 71.5173 134.235 69.6973 134.571 67.812C134.589 67.6813 134.692 67.1213 134.879 66.132C134.431 66.468 133.964 66.7387 133.479 66.944C132.993 67.1307 132.564 67.224 132.191 67.224C131.705 67.224 131.164 67.0653 130.567 66.748C129.988 66.4307 129.493 66.0387 129.083 65.572C128.672 65.1053 128.467 64.6573 128.467 64.228C128.877 62.4547 129.279 60.4947 129.671 58.348C129.745 57.9373 130.072 57.4707 130.651 56.948C131.229 56.4067 131.883 55.9493 132.611 55.576C133.357 55.2027 133.992 55.016 134.515 55.016C134.851 55.016 135.224 55.1 135.635 55.268C136.045 55.4173 136.428 55.632 136.783 55.912L137.007 54.4L137.119 54.372C137.212 54.5027 137.417 54.6147 137.735 54.708C138.071 54.8013 138.267 54.8573 138.323 54.876C138.733 54.988 138.985 55.072 139.079 55.128ZM136.391 58.096C136.484 57.6293 136.531 57.3587 136.531 57.284C136.027 56.7987 135.457 56.556 134.823 56.556C134.207 56.556 133.628 56.7893 133.087 57.256C132.564 57.704 132.209 58.2827 132.023 58.992L131.519 61.624L131.127 63.864C131.127 64.3493 131.285 64.7693 131.603 65.124C131.939 65.4787 132.321 65.656 132.751 65.656C133.087 65.656 133.451 65.544 133.843 65.32C134.235 65.096 134.58 64.7787 134.879 64.368C135.196 63.9387 135.411 63.4347 135.523 62.856L136.391 58.096ZM155.199 60.588C155.516 60.7373 155.675 60.952 155.675 61.232C155.675 62.072 155.18 62.9587 154.191 63.892C153.22 64.8067 152.007 65.5813 150.551 66.216C149.114 66.832 147.779 67.14 146.547 67.14C145.539 67.14 144.68 66.9347 143.971 66.524C143.262 66.1133 142.72 65.656 142.347 65.152C141.992 64.6293 141.815 64.2467 141.815 64.004C141.946 63.5187 142.067 62.94 142.179 62.268C142.31 61.596 142.403 61.1293 142.459 60.868C142.515 60.532 142.58 60.14 142.655 59.692C142.748 59.2253 142.86 58.6933 142.991 58.096C143.066 57.7227 143.392 57.312 143.971 56.864C144.55 56.3973 145.203 56.0147 145.931 55.716C146.678 55.3987 147.294 55.24 147.779 55.24C148.19 55.24 148.675 55.352 149.235 55.576C149.814 55.8 150.308 56.1173 150.719 56.528C151.13 56.92 151.335 57.3867 151.335 57.928C151.335 58.6187 150.99 59.2907 150.299 59.944C149.627 60.5973 148.768 61.1387 147.723 61.568C146.678 61.9787 145.651 62.2027 144.643 62.24L144.419 63.416C144.475 63.9947 144.746 64.4987 145.231 64.928C145.716 65.3387 146.444 65.544 147.415 65.544C148.348 65.544 149.319 65.3293 150.327 64.9C151.354 64.4707 152.296 63.8827 153.155 63.136C154.032 62.3707 154.714 61.5213 155.199 60.588ZM147.527 56.416C147.06 56.416 146.603 56.64 146.155 57.088C145.726 57.536 145.455 57.984 145.343 58.432L144.867 60.98C145.987 60.9053 146.939 60.5787 147.723 60C148.507 59.4213 148.899 58.74 148.899 57.956C148.899 57.4893 148.759 57.116 148.479 56.836C148.218 56.556 147.9 56.416 147.527 56.416ZM156.486 67.364C155.795 67.364 155.161 67.2427 154.582 67C154.003 66.7573 153.546 66.4493 153.21 66.076C152.874 65.684 152.706 65.2827 152.706 64.872C152.706 64.4987 152.837 64.2093 153.098 64.004C153.359 63.78 153.658 63.6493 153.994 63.612C154.218 64.3587 154.554 64.9467 155.002 65.376C155.45 65.8053 156.001 66.02 156.654 66.02C157.326 66.02 157.877 65.8147 158.306 65.404C158.735 64.9747 158.95 64.48 158.95 63.92C158.95 63.4533 158.81 63.052 158.53 62.716C158.25 62.3613 157.802 61.9413 157.186 61.456C156.551 60.952 156.075 60.504 155.758 60.112C155.441 59.72 155.282 59.2533 155.282 58.712C155.282 58.1147 155.478 57.5547 155.87 57.032C156.281 56.5093 156.794 56.0987 157.41 55.8C158.045 55.4827 158.67 55.324 159.286 55.324C159.977 55.324 160.639 55.492 161.274 55.828C161.909 56.1453 162.226 56.5187 162.226 56.948C162.226 57.1533 162.151 57.3587 162.002 57.564C161.853 57.7693 161.629 57.9373 161.33 58.068C161.069 57.62 160.789 57.284 160.49 57.06C160.21 56.836 159.865 56.724 159.454 56.724C159.006 56.724 158.614 56.8547 158.278 57.116C157.942 57.3587 157.774 57.704 157.774 58.152C157.774 58.544 157.914 58.908 158.194 59.244C158.474 59.5613 158.903 59.9533 159.482 60.42C160.173 60.98 160.686 61.4747 161.022 61.904C161.377 62.3147 161.554 62.8093 161.554 63.388C161.554 64.0413 161.311 64.676 160.826 65.292C160.359 65.908 159.734 66.412 158.95 66.804C158.185 67.1773 157.363 67.364 156.486 67.364ZM32.0156 90.376C33.0609 90.376 33.9196 90.6373 34.5916 91.16C35.2822 91.664 35.6836 92.3733 35.7956 93.288V93.54C34.6942 93.0173 33.3969 92.756 31.9036 92.756C30.4476 92.756 29.2062 92.952 28.1796 93.344C27.1716 93.736 26.2382 94.548 25.3796 95.78C24.5396 96.9933 23.8022 98.804 23.1676 101.212C22.4769 103.807 21.7956 106.756 21.1236 110.06C20.4516 113.364 20.1156 115.529 20.1156 116.556C20.1156 117.247 20.2182 117.751 20.4236 118.068C20.6476 118.385 20.9649 118.544 21.3756 118.544C22.2156 118.544 23.1396 118.124 24.1476 117.284C25.1556 116.425 26.0329 115.333 26.7796 114.008C27.0222 114.083 27.1436 114.269 27.1436 114.568C27.1436 115.184 26.8262 115.94 26.1916 116.836C25.5756 117.732 24.7449 118.507 23.6996 119.16C22.6729 119.813 21.5809 120.14 20.4236 120.14C19.7142 120.14 19.1169 119.916 18.6316 119.468C18.1462 119.001 17.8196 118.367 17.6516 117.564C17.1102 118.292 16.4569 118.917 15.6916 119.44C14.9449 119.963 14.2262 120.224 13.5356 120.224C13.0129 120.224 12.5182 120.065 12.0516 119.748C11.6036 119.431 11.2396 119.039 10.9596 118.572C10.6982 118.087 10.5676 117.62 10.5676 117.172C10.6982 116.724 10.8196 116.211 10.9316 115.632C11.0436 115.035 11.1462 114.447 11.2396 113.868C11.2956 113.588 11.3516 113.261 11.4076 112.888C11.4822 112.496 11.5662 112.067 11.6596 111.6C11.7342 111.208 12.0142 110.741 12.4996 110.2C13.0036 109.659 13.6196 109.192 14.3476 108.8C15.0942 108.408 15.8596 108.212 16.6436 108.212C17.3156 108.212 18.0622 108.464 18.8836 108.968C19.1822 107.4 19.4996 105.888 19.8356 104.432C20.9556 99.616 22.5702 96.0693 24.6796 93.792C26.8076 91.5147 29.2529 90.376 32.0156 90.376ZM18.6316 110.312C18.3329 110.125 17.9969 109.976 17.6236 109.864C17.2502 109.752 16.9142 109.696 16.6156 109.696C16.0369 109.696 15.5049 109.911 15.0196 110.34C14.5529 110.769 14.2356 111.311 14.0676 111.964C13.9556 112.431 13.7689 113.327 13.5076 114.652C13.3396 115.585 13.1902 116.304 13.0596 116.808C13.0596 117.275 13.1716 117.685 13.3956 118.04C13.6382 118.376 13.9182 118.544 14.2356 118.544C14.9822 118.544 15.7102 118.087 16.4196 117.172C17.1476 116.239 17.6796 114.988 18.0156 113.42L18.6316 110.312ZM38.5505 113.588C38.8678 113.737 39.0265 113.952 39.0265 114.232C39.0265 115.072 38.5318 115.959 37.5425 116.892C36.5718 117.807 35.3585 118.581 33.9025 119.216C32.4652 119.832 31.1305 120.14 29.8985 120.14C28.8905 120.14 28.0318 119.935 27.3225 119.524C26.6132 119.113 26.0718 118.656 25.6985 118.152C25.3438 117.629 25.1665 117.247 25.1665 117.004C25.2972 116.519 25.4185 115.94 25.5305 115.268C25.6612 114.596 25.7545 114.129 25.8105 113.868C25.8665 113.532 25.9318 113.14 26.0065 112.692C26.0998 112.225 26.2118 111.693 26.3425 111.096C26.4172 110.723 26.7438 110.312 27.3225 109.864C27.9012 109.397 28.5545 109.015 29.2825 108.716C30.0292 108.399 30.6452 108.24 31.1305 108.24C31.5412 108.24 32.0265 108.352 32.5865 108.576C33.1652 108.8 33.6598 109.117 34.0705 109.528C34.4812 109.92 34.6865 110.387 34.6865 110.928C34.6865 111.619 34.3412 112.291 33.6505 112.944C32.9785 113.597 32.1198 114.139 31.0745 114.568C30.0292 114.979 29.0025 115.203 27.9945 115.24L27.7705 116.416C27.8265 116.995 28.0972 117.499 28.5825 117.928C29.0678 118.339 29.7958 118.544 30.7665 118.544C31.6998 118.544 32.6705 118.329 33.6785 117.9C34.7052 117.471 35.6478 116.883 36.5065 116.136C37.3838 115.371 38.0652 114.521 38.5505 113.588ZM30.8785 109.416C30.4118 109.416 29.9545 109.64 29.5065 110.088C29.0772 110.536 28.8065 110.984 28.6945 111.432L28.2185 113.98C29.3385 113.905 30.2905 113.579 31.0745 113C31.8585 112.421 32.2505 111.74 32.2505 110.956C32.2505 110.489 32.1105 110.116 31.8305 109.836C31.5692 109.556 31.2518 109.416 30.8785 109.416ZM45.5724 120.196C45.1991 120.196 44.9471 120.14 44.8164 120.028C44.7044 119.935 44.6484 119.767 44.6484 119.524C44.6484 119.095 44.7977 118.115 45.0964 116.584C45.4137 115.035 45.8804 112.86 46.4964 110.06C46.8884 108.287 47.2431 106.625 47.5604 105.076C47.8777 103.508 48.0364 102.575 48.0364 102.276C48.0364 102.127 47.8777 102.052 47.5604 102.052C47.3737 102.052 46.9257 102.108 46.2164 102.22C45.2084 102.388 44.4617 102.472 43.9764 102.472C43.5471 102.472 43.2484 102.425 43.0804 102.332C42.9124 102.22 42.8284 102.033 42.8284 101.772C42.8284 101.529 42.8751 101.231 42.9684 100.876C43.0804 100.503 43.1924 100.232 43.3044 100.064C43.9764 100.325 44.8257 100.456 45.8524 100.456C46.7297 100.456 47.9897 100.372 49.6324 100.204C49.8564 100.185 50.4444 100.139 51.3964 100.064C52.3484 99.9893 53.1977 99.952 53.9444 99.952C56.1471 99.952 57.7897 100.344 58.8724 101.128C59.9737 101.912 60.5244 103.153 60.5244 104.852C60.5244 106.271 60.1697 107.521 59.4604 108.604C58.7697 109.687 57.8271 110.527 56.6324 111.124C55.4377 111.703 54.1311 111.992 52.7124 111.992C51.7044 111.992 50.9951 111.861 50.5844 111.6C50.1924 111.339 49.9964 111.031 49.9964 110.676C49.9964 110.508 50.0337 110.349 50.1084 110.2C50.2017 110.032 50.3044 109.901 50.4164 109.808C50.5844 109.939 50.8737 110.06 51.2844 110.172C51.6951 110.265 52.1617 110.312 52.6844 110.312C53.7484 110.312 54.6631 110.088 55.4284 109.64C56.1937 109.192 56.7724 108.585 57.1644 107.82C57.5751 107.055 57.7804 106.196 57.7804 105.244C57.7804 102.761 56.3897 101.52 53.6084 101.52C52.8617 101.52 52.1804 101.604 51.5644 101.772C50.9671 101.94 50.6217 102.211 50.5284 102.584C50.1551 104.133 49.5484 107.083 48.7084 111.432C47.8871 115.781 47.4764 118.273 47.4764 118.908C47.4764 119.076 47.4857 119.253 47.5044 119.44C47.5231 119.608 47.5324 119.767 47.5324 119.916C46.7857 120.103 46.1324 120.196 45.5724 120.196ZM78.3473 113.252C78.6833 113.252 78.8513 113.532 78.8513 114.092C78.8513 114.988 78.4873 115.931 77.7593 116.92C77.0499 117.891 76.1633 118.703 75.0993 119.356C74.0353 120.009 73.0553 120.336 72.1593 120.336C71.4499 120.336 70.8246 120.131 70.2833 119.72C69.7606 119.309 69.3873 118.777 69.1633 118.124C68.6593 118.759 68.0526 119.272 67.3433 119.664C66.6339 120.037 65.9993 120.224 65.4393 120.224C64.9539 120.224 64.4686 120.084 63.9833 119.804C63.4979 119.505 63.0873 119.132 62.7513 118.684C62.4153 118.236 62.2379 117.788 62.2193 117.34C62.6486 115.436 63.0313 113.588 63.3673 111.796C63.4419 111.423 63.7593 110.956 64.3193 110.396C64.8793 109.817 65.5513 109.323 66.3353 108.912C67.1193 108.501 67.8659 108.296 68.5753 108.296C69.2286 108.296 69.8913 108.492 70.5633 108.884C70.6939 108.567 70.7966 108.371 70.8713 108.296C70.9459 108.203 71.0579 108.147 71.2073 108.128L73.6433 107.988L73.7273 108.044C73.5033 108.231 73.3353 108.436 73.2233 108.66C73.1113 108.884 73.0086 109.145 72.9153 109.444C72.5793 110.583 72.2339 111.964 71.8793 113.588C71.5246 115.193 71.3473 116.304 71.3473 116.92C71.3473 117.443 71.4686 117.919 71.7113 118.348C71.9726 118.777 72.3739 118.992 72.9153 118.992C73.4753 118.992 74.1193 118.749 74.8473 118.264C75.5939 117.779 76.2846 117.097 76.9193 116.22C77.5726 115.343 78.0486 114.353 78.3473 113.252ZM66.3353 118.544C66.5966 118.544 66.9139 118.413 67.2873 118.152C67.6606 117.891 68.0059 117.536 68.3233 117.088C68.6593 116.64 68.8926 116.145 69.0233 115.604L69.4713 113.504C69.8073 111.787 70.0406 110.657 70.1713 110.116C69.6859 109.892 69.1726 109.78 68.6313 109.78C67.7539 109.78 67.0913 110.06 66.6433 110.62C66.2139 111.161 65.9246 111.777 65.7753 112.468L64.9073 116.696C64.9446 117.163 65.1126 117.592 65.4113 117.984C65.7099 118.357 66.0179 118.544 66.3353 118.544ZM91.9701 113.448C92.2688 113.523 92.4181 113.691 92.4181 113.952C92.4181 114.4 92.0728 115.137 91.3821 116.164C90.6915 117.191 89.8421 118.115 88.8341 118.936C87.8448 119.739 86.8555 120.14 85.8661 120.14C85.1195 120.14 84.4848 119.907 83.9621 119.44C83.4395 118.955 83.1688 118.339 83.1501 117.592C82.6461 118.283 82.0675 118.88 81.4141 119.384C80.7608 119.888 80.1448 120.14 79.5661 120.14C78.9875 120.14 78.3808 119.907 77.7461 119.44C77.1115 118.973 76.7568 118.488 76.6821 117.984L78.3341 108.912C78.4088 108.557 78.5301 108.38 78.6981 108.38C78.9221 108.38 79.3235 108.464 79.9021 108.632C80.4995 108.781 80.7981 108.931 80.7981 109.08C80.7981 109.136 80.7141 109.5 80.5461 110.172C80.3595 110.956 80.0981 112.16 79.7621 113.784C79.4448 115.408 79.2301 116.575 79.1181 117.284C79.1555 117.545 79.2861 117.788 79.5101 118.012C79.7528 118.217 80.0328 118.32 80.3501 118.32C80.8915 118.32 81.4515 118.003 82.0301 117.368C82.6275 116.715 83.1221 115.707 83.5141 114.344C83.8501 113.205 84.2795 111.32 84.8021 108.688C84.8395 108.483 84.9421 108.38 85.1101 108.38C85.3528 108.38 85.7355 108.464 86.2581 108.632C86.7995 108.781 87.0701 108.949 87.0701 109.136C86.5288 111.077 86.0715 112.832 85.6981 114.4C85.3248 115.968 85.1381 116.995 85.1381 117.48C85.1381 117.835 85.2408 118.133 85.4461 118.376C85.6701 118.619 85.9875 118.74 86.3981 118.74C87.1821 118.74 88.0781 118.283 89.0861 117.368C90.0941 116.435 91.0555 115.128 91.9701 113.448ZM102.685 113C103.114 113 103.329 113.308 103.329 113.924C103.329 114.241 103.273 114.568 103.161 114.904C102.9 115.725 102.359 116.547 101.537 117.368C100.735 118.189 99.7638 118.871 98.6252 119.412C97.5052 119.935 96.3478 120.196 95.1532 120.196C93.8278 120.196 92.8105 119.86 92.1012 119.188C91.4105 118.497 91.0652 117.555 91.0652 116.36C91.0652 115.333 91.2985 113.504 91.7652 110.872C92.2505 108.24 92.8012 105.515 93.4172 102.696C94.0332 99.8587 94.5185 97.8053 94.8732 96.536C95.8438 93.0453 97.1785 91.3 98.8772 91.3C99.7172 91.3 100.343 91.6827 100.753 92.448C101.164 93.2133 101.369 94.184 101.369 95.36C101.369 97.712 100.632 100.531 99.1572 103.816C97.6825 107.083 95.9185 110.172 93.8652 113.084C93.7158 114.279 93.6412 115.221 93.6412 115.912C93.6412 116.957 93.7998 117.676 94.1172 118.068C94.4532 118.46 94.9665 118.656 95.6572 118.656C96.5905 118.656 97.5238 118.385 98.4572 117.844C99.4092 117.303 100.259 116.603 101.005 115.744C101.752 114.867 102.312 113.952 102.685 113ZM97.3932 96.9C96.8518 98.8973 96.2918 101.119 95.7132 103.564C95.1532 105.991 94.6865 108.221 94.3132 110.256C95.7132 107.811 96.9265 105.188 97.9532 102.388C98.9798 99.588 99.4932 97.2547 99.4932 95.388C99.4932 94.8093 99.4372 94.3333 99.3252 93.96C99.2132 93.5867 99.0545 93.4 98.8492 93.4C98.6625 93.4 98.4665 93.6333 98.2612 94.1C98.0745 94.548 97.7852 95.4813 97.3932 96.9ZM104.375 120.196C103.517 120.196 102.835 119.972 102.331 119.524C101.827 119.057 101.575 118.32 101.575 117.312C101.575 117.069 101.585 116.883 101.603 116.752L102.499 112.496C102.873 110.592 103.115 109.425 103.227 108.996C103.321 108.772 103.498 108.595 103.759 108.464C104.021 108.315 104.319 108.24 104.655 108.24C104.954 108.24 105.197 108.305 105.383 108.436C105.589 108.548 105.701 108.679 105.719 108.828C105.327 110.564 104.795 113.131 104.123 116.528C104.105 116.677 104.095 116.873 104.095 117.116C104.095 117.639 104.207 118.012 104.431 118.236C104.655 118.46 104.982 118.572 105.411 118.572C106.158 118.572 106.961 118.311 107.819 117.788C108.678 117.247 109.471 116.584 110.199 115.8C110.946 114.997 111.525 114.204 111.935 113.42C112.215 113.532 112.355 113.719 112.355 113.98C112.355 114.167 112.318 114.363 112.243 114.568C112.169 114.755 112.122 114.876 112.103 114.932C111.749 115.772 111.133 116.603 110.255 117.424C109.397 118.245 108.426 118.917 107.343 119.44C106.279 119.944 105.29 120.196 104.375 120.196ZM104.991 105.328C104.543 105.328 104.198 105.197 103.955 104.936C103.731 104.675 103.619 104.32 103.619 103.872C103.619 103.293 103.787 102.808 104.123 102.416C104.459 102.024 104.917 101.828 105.495 101.828C105.943 101.828 106.289 101.949 106.531 102.192C106.774 102.435 106.895 102.78 106.895 103.228C106.895 103.807 106.718 104.301 106.363 104.712C106.009 105.123 105.551 105.328 104.991 105.328ZM125.474 113.728C125.642 113.728 125.773 113.793 125.866 113.924C125.959 114.036 126.006 114.185 126.006 114.372C126.006 114.876 125.689 115.623 125.054 116.612C124.438 117.583 123.607 118.451 122.562 119.216C121.517 119.963 120.359 120.336 119.09 120.336C118.119 120.336 117.363 120.103 116.822 119.636C116.299 119.151 116.038 118.516 116.038 117.732C116.038 117.265 116.122 116.687 116.29 115.996C116.477 115.305 116.729 114.437 117.046 113.392C117.345 112.421 117.587 111.553 117.774 110.788C117.755 110.676 117.681 110.62 117.55 110.62C117.289 110.62 116.785 110.956 116.038 111.628C115.291 112.3 114.554 113.056 113.826 113.896C113.098 114.736 112.65 115.361 112.482 115.772C112.146 117.284 111.941 118.292 111.866 118.796C111.791 119.281 111.745 119.552 111.726 119.608C111.707 119.664 111.689 119.739 111.67 119.832C111.651 119.907 111.623 119.953 111.586 119.972C111.567 119.991 111.53 120 111.474 120C111.194 120 110.755 119.981 110.158 119.944C109.561 119.907 109.262 119.851 109.262 119.776C109.374 119.104 109.663 117.704 110.13 115.576C110.223 115.053 110.27 114.801 110.27 114.82L111.53 108.66C111.549 108.529 111.586 108.455 111.642 108.436C111.717 108.399 111.857 108.38 112.062 108.38C112.939 108.38 113.574 108.52 113.966 108.8C113.947 108.875 113.845 109.341 113.658 110.2C113.471 111.04 113.201 112.113 112.846 113.42C113.891 112.151 114.965 111.003 116.066 109.976C117.167 108.949 117.914 108.436 118.306 108.436C118.511 108.436 118.922 108.539 119.538 108.744C120.173 108.949 120.509 109.117 120.546 109.248L120.042 111.152C119.557 112.888 119.193 114.269 118.95 115.296C118.707 116.323 118.586 117.107 118.586 117.648C118.586 118.507 118.987 118.936 119.79 118.936C120.443 118.936 121.153 118.684 121.918 118.18C122.702 117.657 123.411 116.995 124.046 116.192C124.699 115.371 125.175 114.549 125.474 113.728ZM137.234 113.588C137.551 113.737 137.71 113.952 137.71 114.232C137.71 115.072 137.215 115.959 136.226 116.892C135.255 117.807 134.042 118.581 132.586 119.216C131.149 119.832 129.814 120.14 128.582 120.14C127.574 120.14 126.715 119.935 126.006 119.524C125.297 119.113 124.755 118.656 124.382 118.152C124.027 117.629 123.85 117.247 123.85 117.004C123.981 116.519 124.102 115.94 124.214 115.268C124.345 114.596 124.438 114.129 124.494 113.868C124.55 113.532 124.615 113.14 124.69 112.692C124.783 112.225 124.895 111.693 125.026 111.096C125.101 110.723 125.427 110.312 126.006 109.864C126.585 109.397 127.238 109.015 127.966 108.716C128.713 108.399 129.329 108.24 129.814 108.24C130.225 108.24 130.71 108.352 131.27 108.576C131.849 108.8 132.343 109.117 132.754 109.528C133.165 109.92 133.37 110.387 133.37 110.928C133.37 111.619 133.025 112.291 132.334 112.944C131.662 113.597 130.803 114.139 129.758 114.568C128.713 114.979 127.686 115.203 126.678 115.24L126.454 116.416C126.51 116.995 126.781 117.499 127.266 117.928C127.751 118.339 128.479 118.544 129.45 118.544C130.383 118.544 131.354 118.329 132.362 117.9C133.389 117.471 134.331 116.883 135.19 116.136C136.067 115.371 136.749 114.521 137.234 113.588ZM129.562 109.416C129.095 109.416 128.638 109.64 128.19 110.088C127.761 110.536 127.49 110.984 127.378 111.432L126.902 113.98C128.022 113.905 128.974 113.579 129.758 113C130.542 112.421 130.934 111.74 130.934 110.956C130.934 110.489 130.794 110.116 130.514 109.836C130.253 109.556 129.935 109.416 129.562 109.416Z" fill="#2D2E36"/>
</svg>
