<svg width="168" height="147" viewBox="0 0 168 147" fill="none" xmlns="http://www.w3.org/2000/svg">
<path d="M142.69 62.9999L84.0002 4.31007L25.3103 62.9999L84.0002 121.69L142.69 62.9999Z" stroke="#E8D000"/>
<path d="M139.124 63L84.0002 7.87654L28.8768 63L84.0002 118.123L139.124 63Z" stroke="#E8D000"/>
<path d="M42.5005 21.5L42.5005 104.5H125.501V21.5H42.5005Z" stroke="#E8D000"/>
<path d="M27.128 48.152C27.3147 49.048 27.408 50.0373 27.408 51.12L26.848 50.98C26.8293 50.644 26.7827 50.4107 26.708 50.28C26.6333 50.168 26.456 50.0747 26.176 50C25.0747 49.664 23.1147 49.496 20.296 49.496C18.336 49.496 16.5533 49.5707 14.948 49.72C13.3613 49.8693 12.0733 50.084 11.084 50.364C10.6733 49.58 10.468 49.048 10.468 48.768C10.468 48.544 10.6173 48.4133 10.916 48.376C11.9987 48.1893 12.8853 47.7227 13.576 46.976C14.2667 46.2107 14.8173 45.1933 15.228 43.924C15.6573 42.6547 16.0493 41.0307 16.404 39.052C16.572 38.156 16.7493 37.092 16.936 35.86C17.1227 34.6093 17.2627 33.7133 17.356 33.172C17.3187 33.4707 17.412 32.836 17.636 31.268C17.6733 30.9693 17.86 30.7453 18.196 30.596C18.6067 30.4093 19.4467 30.2507 20.716 30.12C21.9853 29.9707 23.0587 29.896 23.936 29.896C24.0293 29.9147 24.104 30.0547 24.16 30.316C24.216 30.5773 24.244 30.848 24.244 31.128C24.244 31.3147 24.2347 31.436 24.216 31.492C23.8987 31.436 23.544 31.3987 23.152 31.38C22.76 31.3427 22.4147 31.324 22.116 31.324C21.5747 31.324 21.1733 31.4453 20.912 31.688C20.6693 31.9307 20.4733 32.3507 20.324 32.948L19.736 35.608C19.176 38.2213 18.7373 40.1253 18.42 41.32C17.8787 43.3733 17.2813 44.9413 16.628 46.024C15.9933 47.1067 15.2653 47.9 14.444 48.404C15.6013 48.3293 16.796 48.1987 18.028 48.012C19.26 47.8067 19.9973 47.6853 20.24 47.648C21.5093 47.4427 22.48 47.2933 23.152 47.2C23.8427 47.1067 24.4773 47.06 25.056 47.06C25.8027 47.06 26.316 47.1533 26.596 47.34C26.876 47.508 27.0533 47.7787 27.128 48.152ZM43.7502 43.588C44.0675 43.7373 44.2262 43.952 44.2262 44.232C44.2262 45.072 43.7315 45.9587 42.7422 46.892C41.7715 47.8067 40.5582 48.5813 39.1022 49.216C37.6648 49.832 36.3302 50.14 35.0982 50.14C34.0902 50.14 33.2315 49.9347 32.5222 49.524C31.8128 49.1133 31.2715 48.656 30.8982 48.152C30.5435 47.6293 30.3662 47.2467 30.3662 47.004C30.4968 46.5187 30.6182 45.94 30.7302 45.268C30.8608 44.596 30.9542 44.1293 31.0102 43.868C31.0662 43.532 31.1315 43.14 31.2062 42.692C31.2995 42.2253 31.4115 41.6933 31.5422 41.096C31.6168 40.7227 31.9435 40.312 32.5222 39.864C33.1008 39.3973 33.7542 39.0147 34.4822 38.716C35.2288 38.3987 35.8448 38.24 36.3302 38.24C36.7408 38.24 37.2262 38.352 37.7862 38.576C38.3648 38.8 38.8595 39.1173 39.2702 39.528C39.6808 39.92 39.8862 40.3867 39.8862 40.928C39.8862 41.6187 39.5408 42.2907 38.8502 42.944C38.1782 43.5973 37.3195 44.1387 36.2742 44.568C35.2288 44.9787 34.2022 45.2027 33.1942 45.24L32.9702 46.416C33.0262 46.9947 33.2968 47.4987 33.7822 47.928C34.2675 48.3387 34.9955 48.544 35.9662 48.544C36.8995 48.544 37.8702 48.3293 38.8782 47.9C39.9048 47.4707 40.8475 46.8827 41.7062 46.136C42.5835 45.3707 43.2648 44.5213 43.7502 43.588ZM36.0782 39.416C35.6115 39.416 35.1542 39.64 34.7062 40.088C34.2768 40.536 34.0062 40.984 33.8942 41.432L33.4182 43.98C34.5382 43.9053 35.4902 43.5787 36.2742 43C37.0582 42.4213 37.4502 41.74 37.4502 40.956C37.4502 40.4893 37.3102 40.116 37.0302 39.836C36.7688 39.556 36.4515 39.416 36.0782 39.416ZM45.0373 50.364C44.3466 50.364 43.7119 50.2427 43.1333 50C42.5546 49.7573 42.0973 49.4493 41.7613 49.076C41.4253 48.684 41.2573 48.2827 41.2573 47.872C41.2573 47.4987 41.3879 47.2093 41.6493 47.004C41.9106 46.78 42.2093 46.6493 42.5453 46.612C42.7693 47.3587 43.1053 47.9467 43.5533 48.376C44.0013 48.8053 44.5519 49.02 45.2053 49.02C45.8773 49.02 46.4279 48.8147 46.8573 48.404C47.2866 47.9747 47.5013 47.48 47.5013 46.92C47.5013 46.4533 47.3613 46.052 47.0813 45.716C46.8013 45.3613 46.3533 44.9413 45.7373 44.456C45.1026 43.952 44.6266 43.504 44.3093 43.112C43.9919 42.72 43.8333 42.2533 43.8333 41.712C43.8333 41.1147 44.0293 40.5547 44.4213 40.032C44.8319 39.5093 45.3453 39.0987 45.9613 38.8C46.5959 38.4827 47.2213 38.324 47.8373 38.324C48.5279 38.324 49.1906 38.492 49.8253 38.828C50.4599 39.1453 50.7773 39.5187 50.7773 39.948C50.7773 40.1533 50.7026 40.3587 50.5533 40.564C50.4039 40.7693 50.1799 40.9373 49.8813 41.068C49.6199 40.62 49.3399 40.284 49.0413 40.06C48.7613 39.836 48.4159 39.724 48.0053 39.724C47.5573 39.724 47.1653 39.8547 46.8293 40.116C46.4933 40.3587 46.3253 40.704 46.3253 41.152C46.3253 41.544 46.4653 41.908 46.7453 42.244C47.0253 42.5613 47.4546 42.9533 48.0333 43.42C48.7239 43.98 49.2373 44.4747 49.5733 44.904C49.9279 45.3147 50.1053 45.8093 50.1053 46.388C50.1053 47.0413 49.8626 47.676 49.3773 48.292C48.9106 48.908 48.2853 49.412 47.5013 49.804C46.7359 50.1773 45.9146 50.364 45.0373 50.364ZM81.2262 43.168C81.4502 43.168 81.6275 43.2333 81.7582 43.364C81.8889 43.476 81.9542 43.6533 81.9542 43.896C81.9542 44.456 81.6555 45.24 81.0582 46.248C80.4609 47.256 79.6769 48.1427 78.7062 48.908C77.7355 49.6733 76.6995 50.056 75.5982 50.056C74.6089 50.056 73.7502 49.7573 73.0222 49.16C72.3129 48.544 71.9582 47.7973 71.9582 46.92C71.9582 46.4347 72.0609 45.8093 72.2662 45.044C72.4902 44.2787 72.7702 43.392 73.1062 42.384C73.4049 41.4133 73.5729 40.8533 73.6102 40.704C73.6102 40.648 73.5729 40.6013 73.4982 40.564C73.4235 40.508 73.3489 40.48 73.2742 40.48C72.9195 40.48 72.3035 41.096 71.4262 42.328C70.5489 43.5413 69.8862 44.5773 69.4382 45.436C69.2515 46.0333 68.9155 47.3773 68.4302 49.468C68.3555 49.7853 68.2902 50 68.2342 50.112C68.1969 50.224 68.1315 50.28 68.0382 50.28C67.9262 50.28 67.6929 50.224 67.3382 50.112C67.0022 50.0187 66.6942 49.8973 66.4142 49.748C66.1529 49.5987 66.0222 49.4493 66.0222 49.3C66.0222 49.0573 66.1062 48.628 66.2742 48.012C66.7035 46.444 67.0395 45.184 67.2822 44.232C67.5249 43.2613 67.7862 42.0853 68.0662 40.704C67.9542 40.5547 67.8142 40.48 67.6462 40.48C67.3662 40.48 66.9555 40.7787 66.4142 41.376C65.8915 41.9547 65.3222 42.7293 64.7062 43.7C64.1089 44.652 63.5675 45.6507 63.0822 46.696C62.7462 47.9093 62.4662 49.0947 62.2422 50.252C61.9995 50.252 61.5515 50.1867 60.8982 50.056C60.2635 49.9253 59.9462 49.7853 59.9462 49.636C59.9462 49.5053 60.0395 49.0947 60.2262 48.404L60.3662 47.676C60.4409 47.3027 60.6835 46.1827 61.0942 44.316C61.5049 42.4307 61.9529 40.5733 62.4382 38.744C62.4755 38.576 62.5222 38.4547 62.5782 38.38C62.6342 38.3053 62.7182 38.268 62.8302 38.268C62.9795 38.268 63.3715 38.3333 64.0062 38.464C64.6409 38.576 64.9862 38.66 65.0422 38.716C64.6875 40.2467 64.2955 41.824 63.8662 43.448C64.4635 42.3467 65.0609 41.4413 65.6582 40.732C66.2742 40.0227 66.8249 39.5187 67.3102 39.22C67.8142 38.9027 68.2062 38.744 68.4862 38.744C68.7289 38.744 69.1489 38.8653 69.7462 39.108C70.3622 39.332 70.6702 39.5093 70.6702 39.64C70.5209 40.536 70.2875 41.6 69.9702 42.832C71.9302 39.9013 73.3489 38.436 74.2262 38.436C74.5622 38.436 75.0102 38.548 75.5702 38.772C76.1302 38.9773 76.4102 39.2107 76.4102 39.472C76.2049 40.1253 76.1115 40.4333 76.1302 40.396C75.6262 42.0013 75.2342 43.3173 74.9542 44.344C74.6929 45.3707 74.5622 46.2013 74.5622 46.836C74.5622 47.9933 75.1035 48.572 76.1862 48.572C77.2315 48.572 78.2209 48.0773 79.1542 47.088C80.0875 46.0987 80.7782 44.792 81.2262 43.168ZM95.961 43.252C96.297 43.252 96.465 43.532 96.465 44.092C96.465 44.988 96.101 45.9307 95.373 46.92C94.6636 47.8907 93.777 48.7027 92.713 49.356C91.649 50.0093 90.669 50.336 89.773 50.336C89.0636 50.336 88.4383 50.1307 87.897 49.72C87.3743 49.3093 87.001 48.7773 86.777 48.124C86.273 48.7587 85.6663 49.272 84.957 49.664C84.2476 50.0373 83.613 50.224 83.053 50.224C82.5676 50.224 82.0823 50.084 81.597 49.804C81.1116 49.5053 80.701 49.132 80.365 48.684C80.029 48.236 79.8516 47.788 79.833 47.34C80.2623 45.436 80.645 43.588 80.981 41.796C81.0556 41.4227 81.373 40.956 81.933 40.396C82.493 39.8173 83.165 39.3227 83.949 38.912C84.733 38.5013 85.4796 38.296 86.189 38.296C86.8423 38.296 87.505 38.492 88.177 38.884C88.3076 38.5667 88.4103 38.3707 88.485 38.296C88.5596 38.2027 88.6716 38.1467 88.821 38.128L91.257 37.988L91.341 38.044C91.117 38.2307 90.949 38.436 90.837 38.66C90.725 38.884 90.6223 39.1453 90.529 39.444C90.193 40.5827 89.8476 41.964 89.493 43.588C89.1383 45.1933 88.961 46.304 88.961 46.92C88.961 47.4427 89.0823 47.9187 89.325 48.348C89.5863 48.7773 89.9876 48.992 90.529 48.992C91.089 48.992 91.733 48.7493 92.461 48.264C93.2076 47.7787 93.8983 47.0973 94.533 46.22C95.1863 45.3427 95.6623 44.3533 95.961 43.252ZM83.949 48.544C84.2103 48.544 84.5276 48.4133 84.901 48.152C85.2743 47.8907 85.6196 47.536 85.937 47.088C86.273 46.64 86.5063 46.1453 86.637 45.604L87.085 43.504C87.421 41.7867 87.6543 40.6573 87.785 40.116C87.2996 39.892 86.7863 39.78 86.245 39.78C85.3676 39.78 84.705 40.06 84.257 40.62C83.8276 41.1613 83.5383 41.7773 83.389 42.468L82.521 46.696C82.5583 47.1627 82.7263 47.592 83.025 47.984C83.3236 48.3573 83.6316 48.544 83.949 48.544ZM97.2638 50.364C96.5732 50.364 95.9385 50.2427 95.3598 50C94.7812 49.7573 94.3238 49.4493 93.9878 49.076C93.6518 48.684 93.4838 48.2827 93.4838 47.872C93.4838 47.4987 93.6145 47.2093 93.8758 47.004C94.1372 46.78 94.4358 46.6493 94.7718 46.612C94.9958 47.3587 95.3318 47.9467 95.7798 48.376C96.2278 48.8053 96.7785 49.02 97.4318 49.02C98.1038 49.02 98.6545 48.8147 99.0838 48.404C99.5132 47.9747 99.7278 47.48 99.7278 46.92C99.7278 46.4533 99.5878 46.052 99.3078 45.716C99.0278 45.3613 98.5798 44.9413 97.9638 44.456C97.3292 43.952 96.8532 43.504 96.5358 43.112C96.2185 42.72 96.0598 42.2533 96.0598 41.712C96.0598 41.1147 96.2558 40.5547 96.6478 40.032C97.0585 39.5093 97.5718 39.0987 98.1878 38.8C98.8225 38.4827 99.4478 38.324 100.064 38.324C100.755 38.324 101.417 38.492 102.052 38.828C102.687 39.1453 103.004 39.5187 103.004 39.948C103.004 40.1533 102.929 40.3587 102.78 40.564C102.631 40.7693 102.407 40.9373 102.108 41.068C101.847 40.62 101.567 40.284 101.268 40.06C100.988 39.836 100.643 39.724 100.232 39.724C99.7838 39.724 99.3918 39.8547 99.0558 40.116C98.7198 40.3587 98.5518 40.704 98.5518 41.152C98.5518 41.544 98.6918 41.908 98.9718 42.244C99.2518 42.5613 99.6812 42.9533 100.26 43.42C100.951 43.98 101.464 44.4747 101.8 44.904C102.155 45.3147 102.332 45.8093 102.332 46.388C102.332 47.0413 102.089 47.676 101.604 48.292C101.137 48.908 100.512 49.412 99.7278 49.804C98.9625 50.1773 98.1412 50.364 97.2638 50.364ZM108.174 50.364C107.483 50.364 106.849 50.2427 106.27 50C105.691 49.7573 105.234 49.4493 104.898 49.076C104.562 48.684 104.394 48.2827 104.394 47.872C104.394 47.4987 104.525 47.2093 104.786 47.004C105.047 46.78 105.346 46.6493 105.682 46.612C105.906 47.3587 106.242 47.9467 106.69 48.376C107.138 48.8053 107.689 49.02 108.342 49.02C109.014 49.02 109.565 48.8147 109.994 48.404C110.423 47.9747 110.638 47.48 110.638 46.92C110.638 46.4533 110.498 46.052 110.218 45.716C109.938 45.3613 109.49 44.9413 108.874 44.456C108.239 43.952 107.763 43.504 107.446 43.112C107.129 42.72 106.97 42.2533 106.97 41.712C106.97 41.1147 107.166 40.5547 107.558 40.032C107.969 39.5093 108.482 39.0987 109.098 38.8C109.733 38.4827 110.358 38.324 110.974 38.324C111.665 38.324 112.327 38.492 112.962 38.828C113.597 39.1453 113.914 39.5187 113.914 39.948C113.914 40.1533 113.839 40.3587 113.69 40.564C113.541 40.7693 113.317 40.9373 113.018 41.068C112.757 40.62 112.477 40.284 112.178 40.06C111.898 39.836 111.553 39.724 111.142 39.724C110.694 39.724 110.302 39.8547 109.966 40.116C109.63 40.3587 109.462 40.704 109.462 41.152C109.462 41.544 109.602 41.908 109.882 42.244C110.162 42.5613 110.591 42.9533 111.17 43.42C111.861 43.98 112.374 44.4747 112.71 44.904C113.065 45.3147 113.242 45.8093 113.242 46.388C113.242 47.0413 112.999 47.676 112.514 48.292C112.047 48.908 111.422 49.412 110.638 49.804C109.873 50.1773 109.051 50.364 108.174 50.364ZM132.328 43.252C132.664 43.252 132.832 43.532 132.832 44.092C132.832 44.988 132.468 45.9307 131.74 46.92C131.031 47.8907 130.144 48.7027 129.08 49.356C128.016 50.0093 127.036 50.336 126.14 50.336C125.431 50.336 124.805 50.1307 124.264 49.72C123.741 49.3093 123.368 48.7773 123.144 48.124C122.64 48.7587 122.033 49.272 121.324 49.664C120.615 50.0373 119.98 50.224 119.42 50.224C118.935 50.224 118.449 50.084 117.964 49.804C117.479 49.5053 117.068 49.132 116.732 48.684C116.396 48.236 116.219 47.788 116.2 47.34C116.629 45.436 117.012 43.588 117.348 41.796C117.423 41.4227 117.74 40.956 118.3 40.396C118.86 39.8173 119.532 39.3227 120.316 38.912C121.1 38.5013 121.847 38.296 122.556 38.296C123.209 38.296 123.872 38.492 124.544 38.884C124.675 38.5667 124.777 38.3707 124.852 38.296C124.927 38.2027 125.039 38.1467 125.188 38.128L127.624 37.988L127.708 38.044C127.484 38.2307 127.316 38.436 127.204 38.66C127.092 38.884 126.989 39.1453 126.896 39.444C126.56 40.5827 126.215 41.964 125.86 43.588C125.505 45.1933 125.328 46.304 125.328 46.92C125.328 47.4427 125.449 47.9187 125.692 48.348C125.953 48.7773 126.355 48.992 126.896 48.992C127.456 48.992 128.1 48.7493 128.828 48.264C129.575 47.7787 130.265 47.0973 130.9 46.22C131.553 45.3427 132.029 44.3533 132.328 43.252ZM120.316 48.544C120.577 48.544 120.895 48.4133 121.268 48.152C121.641 47.8907 121.987 47.536 122.304 47.088C122.64 46.64 122.873 46.1453 123.004 45.604L123.452 43.504C123.788 41.7867 124.021 40.6573 124.152 40.116C123.667 39.892 123.153 39.78 122.612 39.78C121.735 39.78 121.072 40.06 120.624 40.62C120.195 41.1613 119.905 41.7773 119.756 42.468L118.888 46.696C118.925 47.1627 119.093 47.592 119.392 47.984C119.691 48.3573 119.999 48.544 120.316 48.544ZM141.079 38.128C141.266 38.24 141.359 38.3613 141.359 38.492C141.359 38.6973 141.023 40.3307 140.351 43.392C139.679 46.4533 139.278 48.2827 139.147 48.88L138.755 50.672C137.504 56.3467 135.75 60.3787 133.491 62.768C131.251 65.176 128.6 66.38 125.539 66.38C123.523 66.38 122.086 65.9693 121.227 65.148C120.368 64.3267 119.939 63.3467 119.939 62.208C119.939 61.816 119.986 61.4053 120.079 60.976C120.172 60.5467 120.294 60.2107 120.443 59.968C120.966 61.1253 121.74 61.9747 122.767 62.516C123.775 63.076 124.951 63.356 126.295 63.356C128.703 63.356 130.635 62.6093 132.091 61.116C133.547 59.6413 134.574 58.0267 135.171 56.272C135.768 54.5173 136.235 52.6973 136.571 50.812C136.59 50.6813 136.692 50.1213 136.879 49.132C136.431 49.468 135.964 49.7387 135.479 49.944C134.994 50.1307 134.564 50.224 134.191 50.224C133.706 50.224 133.164 50.0653 132.567 49.748C131.988 49.4307 131.494 49.0387 131.083 48.572C130.672 48.1053 130.467 47.6573 130.467 47.228C130.878 45.4547 131.279 43.4947 131.671 41.348C131.746 40.9373 132.072 40.4707 132.651 39.948C133.23 39.4067 133.883 38.9493 134.611 38.576C135.358 38.2027 135.992 38.016 136.515 38.016C136.851 38.016 137.224 38.1 137.635 38.268C138.046 38.4173 138.428 38.632 138.783 38.912L139.007 37.4L139.119 37.372C139.212 37.5027 139.418 37.6147 139.735 37.708C140.071 37.8013 140.267 37.8573 140.323 37.876C140.734 37.988 140.986 38.072 141.079 38.128ZM138.391 41.096C138.484 40.6293 138.531 40.3587 138.531 40.284C138.027 39.7987 137.458 39.556 136.823 39.556C136.207 39.556 135.628 39.7893 135.087 40.256C134.564 40.704 134.21 41.2827 134.023 41.992L133.519 44.624L133.127 46.864C133.127 47.3493 133.286 47.7693 133.603 48.124C133.939 48.4787 134.322 48.656 134.751 48.656C135.087 48.656 135.451 48.544 135.843 48.32C136.235 48.096 136.58 47.7787 136.879 47.368C137.196 46.9387 137.411 46.4347 137.523 45.856L138.391 41.096ZM157.199 43.588C157.517 43.7373 157.675 43.952 157.675 44.232C157.675 45.072 157.181 45.9587 156.191 46.892C155.221 47.8067 154.007 48.5813 152.551 49.216C151.114 49.832 149.779 50.14 148.547 50.14C147.539 50.14 146.681 49.9347 145.971 49.524C145.262 49.1133 144.721 48.656 144.347 48.152C143.993 47.6293 143.815 47.2467 143.815 47.004C143.946 46.5187 144.067 45.94 144.179 45.268C144.31 44.596 144.403 44.1293 144.459 43.868C144.515 43.532 144.581 43.14 144.655 42.692C144.749 42.2253 144.861 41.6933 144.991 41.096C145.066 40.7227 145.393 40.312 145.971 39.864C146.55 39.3973 147.203 39.0147 147.931 38.716C148.678 38.3987 149.294 38.24 149.779 38.24C150.19 38.24 150.675 38.352 151.235 38.576C151.814 38.8 152.309 39.1173 152.719 39.528C153.13 39.92 153.335 40.3867 153.335 40.928C153.335 41.6187 152.99 42.2907 152.299 42.944C151.627 43.5973 150.769 44.1387 149.723 44.568C148.678 44.9787 147.651 45.2027 146.643 45.24L146.419 46.416C146.475 46.9947 146.746 47.4987 147.231 47.928C147.717 48.3387 148.445 48.544 149.415 48.544C150.349 48.544 151.319 48.3293 152.327 47.9C153.354 47.4707 154.297 46.8827 155.155 46.136C156.033 45.3707 156.714 44.5213 157.199 43.588ZM149.527 39.416C149.061 39.416 148.603 39.64 148.155 40.088C147.726 40.536 147.455 40.984 147.343 41.432L146.867 43.98C147.987 43.9053 148.939 43.5787 149.723 43C150.507 42.4213 150.899 41.74 150.899 40.956C150.899 40.4893 150.759 40.116 150.479 39.836C150.218 39.556 149.901 39.416 149.527 39.416ZM158.487 50.364C157.796 50.364 157.161 50.2427 156.583 50C156.004 49.7573 155.547 49.4493 155.211 49.076C154.875 48.684 154.707 48.2827 154.707 47.872C154.707 47.4987 154.837 47.2093 155.099 47.004C155.36 46.78 155.659 46.6493 155.995 46.612C156.219 47.3587 156.555 47.9467 157.003 48.376C157.451 48.8053 158.001 49.02 158.655 49.02C159.327 49.02 159.877 48.8147 160.307 48.404C160.736 47.9747 160.951 47.48 160.951 46.92C160.951 46.4533 160.811 46.052 160.531 45.716C160.251 45.3613 159.803 44.9413 159.187 44.456C158.552 43.952 158.076 43.504 157.758 43.112C157.441 42.72 157.283 42.2533 157.283 41.712C157.283 41.1147 157.479 40.5547 157.871 40.032C158.281 39.5093 158.795 39.0987 159.411 38.8C160.045 38.4827 160.671 38.324 161.287 38.324C161.977 38.324 162.64 38.492 163.275 38.828C163.909 39.1453 164.227 39.5187 164.227 39.948C164.227 40.1533 164.152 40.3587 164.003 40.564C163.853 40.7693 163.629 40.9373 163.331 41.068C163.069 40.62 162.789 40.284 162.491 40.06C162.211 39.836 161.865 39.724 161.454 39.724C161.007 39.724 160.615 39.8547 160.279 40.116C159.943 40.3587 159.775 40.704 159.775 41.152C159.775 41.544 159.915 41.908 160.195 42.244C160.475 42.5613 160.904 42.9533 161.483 43.42C162.173 43.98 162.687 44.4747 163.023 44.904C163.377 45.3147 163.555 45.8093 163.555 46.388C163.555 47.0413 163.312 47.676 162.827 48.292C162.36 48.908 161.735 49.412 160.951 49.804C160.185 50.1773 159.364 50.364 158.487 50.364ZM34.016 73.376C35.0613 73.376 35.92 73.6373 36.592 74.16C37.2827 74.664 37.684 75.3733 37.796 76.288V76.54C36.6947 76.0173 35.3973 75.756 33.904 75.756C32.448 75.756 31.2067 75.952 30.18 76.344C29.172 76.736 28.2387 77.548 27.38 78.78C26.54 79.9933 25.8027 81.804 25.168 84.212C24.4773 86.8067 23.796 89.756 23.124 93.06C22.452 96.364 22.116 98.5293 22.116 99.556C22.116 100.247 22.2187 100.751 22.424 101.068C22.648 101.385 22.9653 101.544 23.376 101.544C24.216 101.544 25.14 101.124 26.148 100.284C27.156 99.4253 28.0333 98.3333 28.78 97.008C29.0227 97.0827 29.144 97.2693 29.144 97.568C29.144 98.184 28.8267 98.94 28.192 99.836C27.576 100.732 26.7453 101.507 25.7 102.16C24.6733 102.813 23.5813 103.14 22.424 103.14C21.7147 103.14 21.1173 102.916 20.632 102.468C20.1467 102.001 19.82 101.367 19.652 100.564C19.1107 101.292 18.4573 101.917 17.692 102.44C16.9453 102.963 16.2267 103.224 15.536 103.224C15.0133 103.224 14.5187 103.065 14.052 102.748C13.604 102.431 13.24 102.039 12.96 101.572C12.6987 101.087 12.568 100.62 12.568 100.172C12.6987 99.724 12.82 99.2107 12.932 98.632C13.044 98.0347 13.1467 97.4467 13.24 96.868C13.296 96.588 13.352 96.2613 13.408 95.888C13.4827 95.496 13.5667 95.0667 13.66 94.6C13.7347 94.208 14.0147 93.7413 14.5 93.2C15.004 92.6587 15.62 92.192 16.348 91.8C17.0947 91.408 17.86 91.212 18.644 91.212C19.316 91.212 20.0627 91.464 20.884 91.968C21.1827 90.4 21.5 88.888 21.836 87.432C22.956 82.616 24.5707 79.0693 26.68 76.792C28.808 74.5147 31.2533 73.376 34.016 73.376ZM20.632 93.312C20.3333 93.1253 19.9973 92.976 19.624 92.864C19.2507 92.752 18.9147 92.696 18.616 92.696C18.0373 92.696 17.5053 92.9107 17.02 93.34C16.5533 93.7693 16.236 94.3107 16.068 94.964C15.956 95.4307 15.7693 96.3267 15.508 97.652C15.34 98.5853 15.1907 99.304 15.06 99.808C15.06 100.275 15.172 100.685 15.396 101.04C15.6387 101.376 15.9187 101.544 16.236 101.544C16.9827 101.544 17.7107 101.087 18.42 100.172C19.148 99.2387 19.68 97.988 20.016 96.42L20.632 93.312ZM40.5509 96.588C40.8683 96.7373 41.0269 96.952 41.0269 97.232C41.0269 98.072 40.5323 98.9587 39.5429 99.892C38.5723 100.807 37.3589 101.581 35.9029 102.216C34.4656 102.832 33.1309 103.14 31.8989 103.14C30.8909 103.14 30.0323 102.935 29.3229 102.524C28.6136 102.113 28.0723 101.656 27.6989 101.152C27.3443 100.629 27.1669 100.247 27.1669 100.004C27.2976 99.5187 27.4189 98.94 27.5309 98.268C27.6616 97.596 27.7549 97.1293 27.8109 96.868C27.8669 96.532 27.9323 96.14 28.0069 95.692C28.1003 95.2253 28.2123 94.6933 28.3429 94.096C28.4176 93.7227 28.7443 93.312 29.3229 92.864C29.9016 92.3973 30.5549 92.0147 31.2829 91.716C32.0296 91.3987 32.6456 91.24 33.1309 91.24C33.5416 91.24 34.0269 91.352 34.5869 91.576C35.1656 91.8 35.6603 92.1173 36.0709 92.528C36.4816 92.92 36.6869 93.3867 36.6869 93.928C36.6869 94.6187 36.3416 95.2907 35.6509 95.944C34.9789 96.5973 34.1203 97.1387 33.0749 97.568C32.0296 97.9787 31.0029 98.2027 29.9949 98.24L29.7709 99.416C29.8269 99.9947 30.0976 100.499 30.5829 100.928C31.0683 101.339 31.7963 101.544 32.7669 101.544C33.7003 101.544 34.6709 101.329 35.6789 100.9C36.7056 100.471 37.6483 99.8827 38.5069 99.136C39.3843 98.3707 40.0656 97.5213 40.5509 96.588ZM32.8789 92.416C32.4123 92.416 31.9549 92.64 31.5069 93.088C31.0776 93.536 30.8069 93.984 30.6949 94.432L30.2189 96.98C31.3389 96.9053 32.2909 96.5787 33.0749 96C33.8589 95.4213 34.2509 94.74 34.2509 93.956C34.2509 93.4893 34.1109 93.116 33.8309 92.836C33.5696 92.556 33.2523 92.416 32.8789 92.416ZM47.5728 103.196C47.1995 103.196 46.9475 103.14 46.8168 103.028C46.7048 102.935 46.6488 102.767 46.6488 102.524C46.6488 102.095 46.7981 101.115 47.0968 99.584C47.4141 98.0347 47.8808 95.86 48.4968 93.06C48.8888 91.2867 49.2435 89.6253 49.5608 88.076C49.8781 86.508 50.0368 85.5747 50.0368 85.276C50.0368 85.1267 49.8781 85.052 49.5608 85.052C49.3741 85.052 48.9261 85.108 48.2168 85.22C47.2088 85.388 46.4621 85.472 45.9768 85.472C45.5475 85.472 45.2488 85.4253 45.0808 85.332C44.9128 85.22 44.8288 85.0333 44.8288 84.772C44.8288 84.5293 44.8755 84.2307 44.9688 83.876C45.0808 83.5027 45.1928 83.232 45.3048 83.064C45.9768 83.3253 46.8261 83.456 47.8528 83.456C48.7301 83.456 49.9901 83.372 51.6328 83.204C51.8568 83.1853 52.4448 83.1387 53.3968 83.064C54.3488 82.9893 55.1981 82.952 55.9448 82.952C58.1475 82.952 59.7901 83.344 60.8728 84.128C61.9741 84.912 62.5248 86.1533 62.5248 87.852C62.5248 89.2707 62.1701 90.5213 61.4608 91.604C60.7701 92.6867 59.8275 93.5267 58.6328 94.124C57.4381 94.7027 56.1315 94.992 54.7128 94.992C53.7048 94.992 52.9955 94.8613 52.5848 94.6C52.1928 94.3387 51.9968 94.0307 51.9968 93.676C51.9968 93.508 52.0341 93.3493 52.1088 93.2C52.2021 93.032 52.3048 92.9013 52.4168 92.808C52.5848 92.9387 52.8741 93.06 53.2848 93.172C53.6955 93.2653 54.1621 93.312 54.6848 93.312C55.7488 93.312 56.6635 93.088 57.4288 92.64C58.1941 92.192 58.7728 91.5853 59.1648 90.82C59.5755 90.0547 59.7808 89.196 59.7808 88.244C59.7808 85.7613 58.3901 84.52 55.6088 84.52C54.8621 84.52 54.1808 84.604 53.5648 84.772C52.9675 84.94 52.6221 85.2107 52.5288 85.584C52.1555 87.1333 51.5488 90.0827 50.7088 94.432C49.8875 98.7813 49.4768 101.273 49.4768 101.908C49.4768 102.076 49.4861 102.253 49.5048 102.44C49.5235 102.608 49.5328 102.767 49.5328 102.916C48.7861 103.103 48.1328 103.196 47.5728 103.196ZM80.3477 96.252C80.6837 96.252 80.8517 96.532 80.8517 97.092C80.8517 97.988 80.4877 98.9307 79.7597 99.92C79.0504 100.891 78.1637 101.703 77.0997 102.356C76.0357 103.009 75.0557 103.336 74.1597 103.336C73.4504 103.336 72.825 103.131 72.2837 102.72C71.761 102.309 71.3877 101.777 71.1637 101.124C70.6597 101.759 70.053 102.272 69.3437 102.664C68.6344 103.037 67.9997 103.224 67.4397 103.224C66.9544 103.224 66.469 103.084 65.9837 102.804C65.4984 102.505 65.0877 102.132 64.7517 101.684C64.4157 101.236 64.2384 100.788 64.2197 100.34C64.649 98.436 65.0317 96.588 65.3677 94.796C65.4424 94.4227 65.7597 93.956 66.3197 93.396C66.8797 92.8173 67.5517 92.3227 68.3357 91.912C69.1197 91.5013 69.8664 91.296 70.5757 91.296C71.229 91.296 71.8917 91.492 72.5637 91.884C72.6944 91.5667 72.797 91.3707 72.8717 91.296C72.9464 91.2027 73.0584 91.1467 73.2077 91.128L75.6437 90.988L75.7277 91.044C75.5037 91.2307 75.3357 91.436 75.2237 91.66C75.1117 91.884 75.009 92.1453 74.9157 92.444C74.5797 93.5827 74.2344 94.964 73.8797 96.588C73.525 98.1933 73.3477 99.304 73.3477 99.92C73.3477 100.443 73.469 100.919 73.7117 101.348C73.973 101.777 74.3744 101.992 74.9157 101.992C75.4757 101.992 76.1197 101.749 76.8477 101.264C77.5944 100.779 78.285 100.097 78.9197 99.22C79.573 98.3427 80.049 97.3533 80.3477 96.252ZM68.3357 101.544C68.597 101.544 68.9144 101.413 69.2877 101.152C69.661 100.891 70.0064 100.536 70.3237 100.088C70.6597 99.64 70.893 99.1453 71.0237 98.604L71.4717 96.504C71.8077 94.7867 72.041 93.6573 72.1717 93.116C71.6864 92.892 71.173 92.78 70.6317 92.78C69.7544 92.78 69.0917 93.06 68.6437 93.62C68.2144 94.1613 67.925 94.7773 67.7757 95.468L66.9077 99.696C66.945 100.163 67.113 100.592 67.4117 100.984C67.7104 101.357 68.0184 101.544 68.3357 101.544ZM93.9706 96.448C94.2692 96.5227 94.4186 96.6907 94.4186 96.952C94.4186 97.4 94.0732 98.1373 93.3826 99.164C92.6919 100.191 91.8426 101.115 90.8346 101.936C89.8452 102.739 88.8559 103.14 87.8666 103.14C87.1199 103.14 86.4852 102.907 85.9626 102.44C85.4399 101.955 85.1692 101.339 85.1506 100.592C84.6466 101.283 84.0679 101.88 83.4146 102.384C82.7612 102.888 82.1452 103.14 81.5666 103.14C80.9879 103.14 80.3812 102.907 79.7466 102.44C79.1119 101.973 78.7572 101.488 78.6826 100.984L80.3346 91.912C80.4092 91.5573 80.5306 91.38 80.6986 91.38C80.9226 91.38 81.3239 91.464 81.9026 91.632C82.4999 91.7813 82.7986 91.9307 82.7986 92.08C82.7986 92.136 82.7146 92.5 82.5466 93.172C82.3599 93.956 82.0986 95.16 81.7626 96.784C81.4452 98.408 81.2306 99.5747 81.1186 100.284C81.1559 100.545 81.2866 100.788 81.5106 101.012C81.7532 101.217 82.0332 101.32 82.3506 101.32C82.8919 101.32 83.4519 101.003 84.0306 100.368C84.6279 99.7147 85.1226 98.7067 85.5146 97.344C85.8506 96.2053 86.2799 94.32 86.8026 91.688C86.8399 91.4827 86.9426 91.38 87.1106 91.38C87.3532 91.38 87.7359 91.464 88.2586 91.632C88.7999 91.7813 89.0706 91.9493 89.0706 92.136C88.5292 94.0773 88.0719 95.832 87.6986 97.4C87.3252 98.968 87.1386 99.9947 87.1386 100.48C87.1386 100.835 87.2412 101.133 87.4466 101.376C87.6706 101.619 87.9879 101.74 88.3986 101.74C89.1826 101.74 90.0786 101.283 91.0866 100.368C92.0946 99.4347 93.0559 98.128 93.9706 96.448ZM104.686 96C105.115 96 105.33 96.308 105.33 96.924C105.33 97.2413 105.274 97.568 105.162 97.904C104.9 98.7253 104.359 99.5467 103.538 100.368C102.735 101.189 101.764 101.871 100.626 102.412C99.5056 102.935 98.3483 103.196 97.1536 103.196C95.8283 103.196 94.8109 102.86 94.1016 102.188C93.4109 101.497 93.0656 100.555 93.0656 99.36C93.0656 98.3333 93.2989 96.504 93.7656 93.872C94.2509 91.24 94.8016 88.5147 95.4176 85.696C96.0336 82.8587 96.5189 80.8053 96.8736 79.536C97.8443 76.0453 99.1789 74.3 100.878 74.3C101.718 74.3 102.343 74.6827 102.754 75.448C103.164 76.2133 103.37 77.184 103.37 78.36C103.37 80.712 102.632 83.5307 101.158 86.816C99.6829 90.0827 97.9189 93.172 95.8656 96.084C95.7163 97.2787 95.6416 98.2213 95.6416 98.912C95.6416 99.9573 95.8003 100.676 96.1176 101.068C96.4536 101.46 96.9669 101.656 97.6576 101.656C98.5909 101.656 99.5243 101.385 100.458 100.844C101.41 100.303 102.259 99.6027 103.006 98.744C103.752 97.8667 104.312 96.952 104.686 96ZM99.3936 79.9C98.8523 81.8973 98.2923 84.1187 97.7136 86.564C97.1536 88.9907 96.6869 91.2213 96.3136 93.256C97.7136 90.8107 98.9269 88.188 99.9536 85.388C100.98 82.588 101.494 80.2547 101.494 78.388C101.494 77.8093 101.438 77.3333 101.326 76.96C101.214 76.5867 101.055 76.4 100.85 76.4C100.663 76.4 100.467 76.6333 100.262 77.1C100.075 77.548 99.7856 78.4813 99.3936 79.9ZM106.376 103.196C105.517 103.196 104.836 102.972 104.332 102.524C103.828 102.057 103.576 101.32 103.576 100.312C103.576 100.069 103.585 99.8827 103.604 99.752L104.5 95.496C104.873 93.592 105.116 92.4253 105.228 91.996C105.321 91.772 105.499 91.5947 105.76 91.464C106.021 91.3147 106.32 91.24 106.656 91.24C106.955 91.24 107.197 91.3053 107.384 91.436C107.589 91.548 107.701 91.6787 107.72 91.828C107.328 93.564 106.796 96.1307 106.124 99.528C106.105 99.6773 106.096 99.8733 106.096 100.116C106.096 100.639 106.208 101.012 106.432 101.236C106.656 101.46 106.983 101.572 107.412 101.572C108.159 101.572 108.961 101.311 109.82 100.788C110.679 100.247 111.472 99.584 112.2 98.8C112.947 97.9973 113.525 97.204 113.936 96.42C114.216 96.532 114.356 96.7187 114.356 96.98C114.356 97.1667 114.319 97.3627 114.244 97.568C114.169 97.7547 114.123 97.876 114.104 97.932C113.749 98.772 113.133 99.6027 112.256 100.424C111.397 101.245 110.427 101.917 109.344 102.44C108.28 102.944 107.291 103.196 106.376 103.196ZM106.992 88.328C106.544 88.328 106.199 88.1973 105.956 87.936C105.732 87.6747 105.62 87.32 105.62 86.872C105.62 86.2933 105.788 85.808 106.124 85.416C106.46 85.024 106.917 84.828 107.496 84.828C107.944 84.828 108.289 84.9493 108.532 85.192C108.775 85.4347 108.896 85.78 108.896 86.228C108.896 86.8067 108.719 87.3013 108.364 87.712C108.009 88.1227 107.552 88.328 106.992 88.328ZM127.475 96.728C127.643 96.728 127.773 96.7933 127.867 96.924C127.96 97.036 128.007 97.1853 128.007 97.372C128.007 97.876 127.689 98.6227 127.055 99.612C126.439 100.583 125.608 101.451 124.563 102.216C123.517 102.963 122.36 103.336 121.091 103.336C120.12 103.336 119.364 103.103 118.823 102.636C118.3 102.151 118.039 101.516 118.039 100.732C118.039 100.265 118.123 99.6867 118.291 98.996C118.477 98.3053 118.729 97.4373 119.047 96.392C119.345 95.4213 119.588 94.5533 119.775 93.788C119.756 93.676 119.681 93.62 119.551 93.62C119.289 93.62 118.785 93.956 118.039 94.628C117.292 95.3 116.555 96.056 115.827 96.896C115.099 97.736 114.651 98.3613 114.483 98.772C114.147 100.284 113.941 101.292 113.867 101.796C113.792 102.281 113.745 102.552 113.727 102.608C113.708 102.664 113.689 102.739 113.671 102.832C113.652 102.907 113.624 102.953 113.587 102.972C113.568 102.991 113.531 103 113.475 103C113.195 103 112.756 102.981 112.159 102.944C111.561 102.907 111.263 102.851 111.263 102.776C111.375 102.104 111.664 100.704 112.131 98.576C112.224 98.0533 112.271 97.8013 112.271 97.82L113.531 91.66C113.549 91.5293 113.587 91.4547 113.643 91.436C113.717 91.3987 113.857 91.38 114.063 91.38C114.94 91.38 115.575 91.52 115.967 91.8C115.948 91.8747 115.845 92.3413 115.659 93.2C115.472 94.04 115.201 95.1133 114.847 96.42C115.892 95.1507 116.965 94.0027 118.067 92.976C119.168 91.9493 119.915 91.436 120.307 91.436C120.512 91.436 120.923 91.5387 121.539 91.744C122.173 91.9493 122.509 92.1173 122.547 92.248L122.043 94.152C121.557 95.888 121.193 97.2693 120.951 98.296C120.708 99.3227 120.587 100.107 120.587 100.648C120.587 101.507 120.988 101.936 121.791 101.936C122.444 101.936 123.153 101.684 123.919 101.18C124.703 100.657 125.412 99.9947 126.047 99.192C126.7 98.3707 127.176 97.5493 127.475 96.728ZM139.235 96.588C139.552 96.7373 139.711 96.952 139.711 97.232C139.711 98.072 139.216 98.9587 138.227 99.892C137.256 100.807 136.043 101.581 134.587 102.216C133.149 102.832 131.815 103.14 130.583 103.14C129.575 103.14 128.716 102.935 128.007 102.524C127.297 102.113 126.756 101.656 126.383 101.152C126.028 100.629 125.851 100.247 125.851 100.004C125.981 99.5187 126.103 98.94 126.215 98.268C126.345 97.596 126.439 97.1293 126.495 96.868C126.551 96.532 126.616 96.14 126.691 95.692C126.784 95.2253 126.896 94.6933 127.027 94.096C127.101 93.7227 127.428 93.312 128.007 92.864C128.585 92.3973 129.239 92.0147 129.967 91.716C130.713 91.3987 131.329 91.24 131.815 91.24C132.225 91.24 132.711 91.352 133.271 91.576C133.849 91.8 134.344 92.1173 134.755 92.528C135.165 92.92 135.371 93.3867 135.371 93.928C135.371 94.6187 135.025 95.2907 134.335 95.944C133.663 96.5973 132.804 97.1387 131.759 97.568C130.713 97.9787 129.687 98.2027 128.679 98.24L128.455 99.416C128.511 99.9947 128.781 100.499 129.267 100.928C129.752 101.339 130.48 101.544 131.451 101.544C132.384 101.544 133.355 101.329 134.363 100.9C135.389 100.471 136.332 99.8827 137.191 99.136C138.068 98.3707 138.749 97.5213 139.235 96.588ZM131.563 92.416C131.096 92.416 130.639 92.64 130.191 93.088C129.761 93.536 129.491 93.984 129.379 94.432L128.903 96.98C130.023 96.9053 130.975 96.5787 131.759 96C132.543 95.4213 132.935 94.74 132.935 93.956C132.935 93.4893 132.795 93.116 132.515 92.836C132.253 92.556 131.936 92.416 131.563 92.416Z" fill="#347E7F"/>
</svg>
